<?xml version="1.0" encoding="UTF-8"?>
<svg xmlns="http://www.w3.org/2000/svg" xmlns:xlink="http://www.w3.org/1999/xlink" width="20pt" height="20pt" viewBox="0 0 20 20" version="1.1">
<g id="surface1">
<path style=" stroke:none;fill-rule:nonzero;fill:rgb(14.901961%,13.72549%,14.117647%);fill-opacity:1;" d="M 19.132812 6.800781 C 17.464844 4.800781 14.066406 3.601562 10 3.601562 C 6 3.601562 2.535156 4.800781 0.867188 6.800781 C 0.199219 7.601562 -0.0664062 8.535156 0.132812 9.464844 C 0.265625 10.265625 0.800781 11 1.464844 11.332031 C 1.867188 11.535156 2.332031 11.601562 2.734375 11.601562 C 2.933594 11.601562 3.199219 11.601562 3.398438 11.535156 C 3.265625 11.933594 3.199219 12.332031 3.132812 12.800781 C 3 14 3.199219 14.867188 3.800781 15.535156 C 4.464844 16.332031 5.535156 16.398438 5.933594 16.398438 C 6.066406 16.398438 6.132812 16.398438 6.132812 16.398438 L 13.933594 16.398438 C 14.800781 16.398438 15.601562 16.066406 16.066406 15.464844 C 16.734375 14.667969 16.867188 13.535156 16.800781 12.800781 C 16.734375 12.398438 16.667969 11.933594 16.535156 11.535156 C 16.734375 11.601562 17 11.601562 17.265625 11.601562 C 17.667969 11.601562 18.132812 11.535156 18.535156 11.332031 C 19.199219 11 19.734375 10.265625 19.867188 9.464844 C 20 8.535156 19.800781 7.535156 19.132812 6.800781 Z M 15.332031 14.800781 C 15 15.199219 14.535156 15.398438 13.933594 15.398438 L 6.066406 15.398438 C 6 15.398438 5.066406 15.464844 4.535156 14.867188 C 4.199219 14.464844 4.066406 13.800781 4.132812 12.933594 C 4.464844 10.265625 6.265625 8.667969 6.601562 8.398438 C 7.535156 7.667969 8.800781 7.199219 10.066406 7.199219 C 11.332031 7.199219 12.464844 7.601562 13.332031 8.398438 C 14.601562 9.464844 15.535156 11.265625 15.800781 12.933594 C 15.867188 13.464844 15.800781 14.265625 15.332031 14.800781 Z M 18.867188 9.265625 C 18.734375 9.800781 18.464844 10.265625 18 10.464844 C 17.265625 10.867188 16.265625 10.535156 16 10.398438 C 15.535156 9.332031 14.800781 8.398438 13.933594 7.667969 C 12.867188 6.734375 11.464844 6.265625 10 6.265625 C 8.535156 6.265625 7.066406 6.800781 5.933594 7.667969 C 5.667969 7.867188 4.535156 8.867188 3.800781 10.464844 C 3.464844 10.601562 2.601562 10.867188 1.933594 10.464844 C 1.535156 10.265625 1.199219 9.800781 1.066406 9.265625 C 0.933594 8.667969 1.132812 8 1.601562 7.464844 C 3.132812 5.667969 6.265625 4.601562 10 4.601562 C 13.734375 4.601562 16.867188 5.667969 18.332031 7.464844 C 18.800781 8 19 8.601562 18.867188 9.265625 Z M 10 8.265625 C 8.535156 8.265625 7.265625 9.332031 7.265625 10.601562 C 7.265625 11.867188 8.464844 12.933594 10 12.933594 C 11.464844 12.933594 12.734375 11.867188 12.734375 10.601562 C 12.734375 9.332031 11.464844 8.265625 10 8.265625 Z M 10 11.933594 C 9.066406 11.933594 8.265625 11.332031 8.265625 10.601562 C 8.265625 9.867188 9 9.265625 10 9.265625 C 10.933594 9.265625 11.734375 9.867188 11.734375 10.601562 C 11.734375 11.332031 10.933594 11.933594 10 11.933594 Z M 10 11.933594 "/>
</g>
</svg>
